<?xml version="1.0" encoding="UTF-8"?>
<svg version="1.1" viewBox="0 0 2048 1706" width="659" height="549" xmlns="http://www.w3.org/2000/svg">
<path transform="translate(1084)" d="m0 0h417l-2 6-15 26-14 24-16 27-14 24-13 23-10 17-17 29-15 26-56 96-15 26-10 17-17 29-15 26-16 27-16 28-10 17-42 72-15 26-16 27-30 52-10 17-42 72-15 26-13 22-15 26-16 27-12 21-42 72-15 26-10 17-28 48-15 26-13 22-15 26-16 27-16 28-10 17-28 48-15 26-9 15-15 26-2 3h-2l-11-20-9-15-28-48-17-29-14-24-17-29-15-26-16-27-15-26-14-24-17-29-15-26-13-22-8-14 1-4 42-72 17-29 10-17 14-24 13-22 17-29 14-24 17-29 16-27 15-26 16-27 28-48 17-29 13-22 15-26 15-25 15-26 17-29 16-27 15-26 16-27 15-26 9-15 15-26 26-44 15-26 16-27 17-29 14-24 17-29 16-27 12-21z" fill="#FEFEFE"/>
<path transform="translate(1638)" d="m0 0h409l-6 11-15 27-14 24-44 77-15 26-14 24-13 23-14 24-16 28-30 52-16 28-15 26-14 24-13 23-14 24-16 28-60 104-16 28-15 26-14 24-13 23-14 24-16 28-14 24-16 28-15 26-12 24-14 24-13 23-14 24-32 56-15 26-16 28-30 52-28 49-30 52-16 28-15 26-16 28-15 26-7 12-2 4-4-4-9-15-17-29-12-20-13-22-15-25-17-29-16-27-9-15-17-29-12-20-17-29-9-15-19-32-26-44-1-5 6-9 10-18 9-15 15-26 13-22 42-72 15-26 9-15 15-26 16-27 15-26 13-22 15-26 13-22 15-26 9-15 15-26 16-27 15-26 16-27 12-21 17-29 14-24 17-29 15-26 13-22 28-48 17-29 15-26 13-22 15-26 9-15 15-26 10-17 17-29 14-24z" fill="#FEC02D"/>
<path transform="translate(5)" d="m0 0h438l6 10 16 28 15 26 60 105 15 26 60 105 30 52 13 23 15 26 20 35-1 5-14 24-15 26-14 24-15 26-14 24-30 52-14 24-15 26-14 24-30 52-28 48-8 13-3-3-15-26-17-29-15-25-16-28-15-25-15-26-15-25-14-24-15-26-16-27-14-24-17-29-16-27-15-26-16-27-34-58-16-27-15-26-15-25-15-26-16-27-17-29-14-24-34-58-17-28-14-25-16-27-10-18 9 19 4 8-1 2-14-24z" fill="#FEFEFE"/>
<path transform="translate(445,1413)" d="m0 0h46l6 8 14 22 11 17 32 50 11 17 16 25 13 20 4-5 12-19 15-23 10-16 11-17 28-44 16-25 7-10h47v293h-65l-1-158-17 26-12 19-16 25-13 20-4 5h-44l-7-10-12-19-28-44-12-19-2-3-1 158h-65l-1-4v-288z" fill="#FEFEFE"/>
<path transform="translate(1117,1413)" d="m0 0h130l21 3 12 4 16 8 13 10 7 7 7 10 7 14 4 16 1 8v14l-4 20-5 12-9 14-10 10-10 7-16 8-16 5-4 1 13 16 14 19 14 18 12 16 14 18 12 16 13 17v2h-78l-78-108-8-10-2-2-4-1-1 121h-66v-292zm66 51-1 4v68l1 1h53l12-3 11-7 6-8 3-9 1-5v-9l-4-13-6-8-7-6-11-4-8-1z" fill="#FEFEFE"/>
<path transform="translate(903,1413)" d="m0 0h59l5 10 19 49 15 38 11 28 18 46 20 51 15 38 12 31v2h-70l-18-50-1-2-114-1-2 9-14 38-3 6h-68l3-10 12-30 50-126 17-43 23-58 10-25zm28 85-17 47-19 51v4h61l13-1-10-29-13-35-9-26-4-10z" fill="#FEFEFE"/>
<path transform="translate(1361,1413)" d="m0 0h247l1 1v56l-67 1h-24v235h-66l-1-235h-88l-3-1v-56z" fill="#FEFEFE"/>
<path transform="translate(723,471)" d="m0 0 3 1-2 2z" fill="#FEFEFE"/>
<path transform="translate(756,1287)" d="m0 0h2l-1 2z" fill="#FEFEFE"/>
<path transform="translate(27,38)" d="m0 0" fill="#FEFEFE"/>
<path transform="translate(29,42)" d="m0 0" fill="#FEFEFE"/>
<path transform="translate(28,40)" d="m0 0" fill="#FEFEFE"/>
</svg>
